<svg xmlns="http://www.w3.org/2000/svg" xmlns:xlink="http://www.w3.org/1999/xlink" width="500" zoomAndPan="magnify" viewBox="0 0 375 374.999991" height="500" preserveAspectRatio="xMidYMid meet" version="1.0"><defs><g/><clipPath id="b43a448995"><path d="M 37.5 37.5 L 337.5 37.5 L 337.5 337.5 L 37.5 337.5 Z M 37.5 37.5 " clip-rule="nonzero"/></clipPath><clipPath id="1631996685"><path d="M 187.5 37.5 C 104.65625 37.5 37.5 104.65625 37.5 187.5 C 37.5 270.34375 104.65625 337.5 187.5 337.5 C 270.34375 337.5 337.5 270.34375 337.5 187.5 C 337.5 104.65625 270.34375 37.5 187.5 37.5 Z M 187.5 37.5 " clip-rule="nonzero"/></clipPath></defs><g clip-path="url(#b43a448995)"><g clip-path="url(#1631996685)"><path fill="#044389" d="M 37.5 37.5 L 337.5 37.5 L 337.5 337.5 L 37.5 337.5 Z M 37.5 37.5 " fill-opacity="1" fill-rule="nonzero"/></g></g><g fill="#ffffff" fill-opacity="1"><g transform="translate(69.41488, 239.803032)"><g><path d="M 11.5625 -107.515625 L 104.546875 -107.515625 L 104.546875 -81.734375 L 46.09375 -81.734375 L 46.09375 -66.875 L 96.109375 -66.875 L 96.109375 -42.1875 L 46.09375 -42.1875 L 46.09375 -25.78125 L 105.640625 -25.78125 L 105.640625 0 L 11.5625 0 Z M 11.5625 -107.515625 "/></g></g></g><path stroke-linecap="butt" transform="matrix(0.494289, 0, 0, 0.494289, 125.832037, 78.262113)" fill="none" stroke-linejoin="miter" d="M 352.874274 325.996182 L 268.125017 325.996182 L 227.986871 258.308996 L 226.675012 258.308996 L 186.544768 325.996182 L 108.125626 325.996182 L 185.928353 210.924014 L 115.7676 108.49627 L 200.129622 108.49627 L 233.005127 164.147545 L 234.316986 164.147545 L 267.508601 108.49627 L 345.540508 108.49627 L 275.071548 211.232221 Z M 352.874274 325.996182 " stroke="#ffffff" stroke-width="4.346952" stroke-opacity="1" stroke-miterlimit="4"/><g fill="#ffffff" fill-opacity="1"><g transform="translate(178.666896, 239.400325)"><g><path d="M 121.578125 0 L 79.703125 0 L 59.84375 -33.4375 L 59.21875 -33.4375 L 39.375 0 L 0.625 0 L 39.0625 -56.875 L 4.375 -107.515625 L 46.09375 -107.515625 L 62.34375 -80.015625 L 62.96875 -80.015625 L 79.390625 -107.515625 L 117.984375 -107.515625 L 83.140625 -56.71875 Z M 121.578125 0 "/></g></g></g><g fill="#ffffff" fill-opacity="1"><g transform="translate(143.658467, 265.444142)"><g><path d="M 8.78125 -13.625 L 8.78125 -10.90625 L 4.09375 -10.90625 L 4.09375 -8.1875 L 8.59375 -8.1875 L 8.59375 -5.46875 L 4.09375 -5.46875 L 4.09375 -2.71875 L 8.78125 -2.71875 L 8.78125 0 L 0.984375 0 L 0.984375 -13.625 Z M 8.78125 -13.625 "/></g></g></g><g fill="#ffffff" fill-opacity="1"><g transform="translate(154.309273, 265.444142)"><g><path d="M 13.734375 0 L 9.734375 0 L 6.5 -4.640625 L 3.28125 0 L -0.5625 0 L 4.59375 -7.328125 L 0.296875 -13.625 L 4 -13.625 L 6.5 -9.90625 L 9.015625 -13.625 L 12.875 -13.625 L 8.421875 -7.328125 Z M 13.734375 0 "/></g></g></g><g fill="#ffffff" fill-opacity="1"><g transform="translate(168.559621, 265.444142)"><g><path d="M 7.90625 -13.625 L 13.40625 0 L 10.078125 0 L 9.0625 -2.71875 L 3.875 -2.71875 L 2.875 0 L -0.46875 0 L 5.03125 -13.625 Z M 8.015625 -5.453125 L 6.484375 -9.40625 L 6.453125 -9.40625 L 4.9375 -5.453125 Z M 8.015625 -5.453125 "/></g></g></g><g fill="#ffffff" fill-opacity="1"><g transform="translate(182.578813, 265.444142)"><g><path d="M 12.25 0 L 11.609375 -8.078125 L 11.53125 -8.078125 L 8.734375 -0.078125 L 6.890625 -0.078125 L 4.09375 -8.078125 L 4.015625 -8.078125 L 3.375 0 L 0.265625 0 L 1.484375 -13.625 L 4.796875 -13.625 L 7.8125 -5.765625 L 10.828125 -13.625 L 14.140625 -13.625 L 15.359375 0 Z M 12.25 0 "/></g></g></g><g fill="#ffffff" fill-opacity="1"><g transform="translate(199.272897, 265.444142)"><g><path d="M 0.984375 -13.625 L 5.96875 -13.625 C 7.351562 -13.625 8.472656 -13.265625 9.328125 -12.546875 C 10.191406 -11.835938 10.625 -10.796875 10.625 -9.421875 C 10.625 -8.054688 10.1875 -6.984375 9.3125 -6.203125 C 8.445312 -5.429688 7.332031 -5.046875 5.96875 -5.046875 L 4.09375 -5.046875 L 4.09375 0 L 0.984375 0 Z M 4.09375 -7.53125 L 4.96875 -7.53125 C 5.664062 -7.53125 6.234375 -7.671875 6.671875 -7.953125 C 7.117188 -8.234375 7.34375 -8.691406 7.34375 -9.328125 C 7.34375 -9.984375 7.117188 -10.445312 6.671875 -10.71875 C 6.234375 -11 5.664062 -11.140625 4.96875 -11.140625 L 4.09375 -11.140625 Z M 4.09375 -7.53125 "/></g></g></g><g fill="#ffffff" fill-opacity="1"><g transform="translate(211.343707, 265.444142)"><g><path d="M 4.09375 -13.625 L 4.09375 -2.71875 L 8.78125 -2.71875 L 8.78125 0 L 0.984375 0 L 0.984375 -13.625 Z M 4.09375 -13.625 "/></g></g></g><g fill="#ffffff" fill-opacity="1"><g transform="translate(221.746838, 265.444142)"><g><path d="M 8.78125 -13.625 L 8.78125 -10.90625 L 4.09375 -10.90625 L 4.09375 -8.1875 L 8.59375 -8.1875 L 8.59375 -5.46875 L 4.09375 -5.46875 L 4.09375 -2.71875 L 8.78125 -2.71875 L 8.78125 0 L 0.984375 0 L 0.984375 -13.625 Z M 8.78125 -13.625 "/></g></g></g><g fill="#ffffff" fill-opacity="1"><g transform="translate(157.246376, 279.647357)"><g><path d="M 1.53125 -5.71875 L 1.53125 -0.5625 L 4.28125 -0.5625 L 4.28125 0 L 0.859375 0 L 0.859375 -5.71875 Z M 1.53125 -5.71875 "/></g></g></g><g fill="#ffffff" fill-opacity="1"><g transform="translate(166.501698, 279.647357)"><g><path d="M 1.53125 0 L 0.859375 0 L 0.859375 -5.71875 L 1.53125 -5.71875 Z M 1.53125 0 "/></g></g></g><g fill="#ffffff" fill-opacity="1"><g transform="translate(173.632026, 279.647357)"><g><path d="M 1.484375 0 L 0.859375 0 L 0.859375 -5.71875 L 1.859375 -5.71875 L 3.59375 -0.875 L 3.671875 -0.875 L 5.40625 -5.71875 L 6.359375 -5.71875 L 6.359375 0 L 5.734375 0 L 5.734375 -4.65625 L 5.625 -4.671875 L 3.9375 0 L 3.28125 0 L 1.578125 -4.671875 L 1.484375 -4.65625 Z M 1.484375 0 "/></g></g></g><g fill="#ffffff" fill-opacity="1"><g transform="translate(185.590467, 279.647357)"><g><path d="M 1.53125 0 L 0.859375 0 L 0.859375 -5.71875 L 1.53125 -5.71875 Z M 1.53125 0 "/></g></g></g><g fill="#ffffff" fill-opacity="1"><g transform="translate(192.720794, 279.647357)"><g><path d="M 4.453125 -5.71875 L 4.453125 -5.140625 L 2.671875 -5.140625 L 2.671875 0 L 2 0 L 2 -5.140625 L 0.21875 -5.140625 L 0.21875 -5.71875 Z M 4.453125 -5.71875 "/></g></g></g><g fill="#ffffff" fill-opacity="1"><g transform="translate(202.112834, 279.647357)"><g><path d="M 1.53125 -2.6875 L 1.53125 -0.5625 L 4.453125 -0.5625 L 4.453125 0 L 0.859375 0 L 0.859375 -5.71875 L 4.390625 -5.71875 L 4.390625 -5.15625 L 1.53125 -5.15625 L 1.53125 -3.25 L 4.046875 -3.25 L 4.046875 -2.6875 Z M 1.53125 -2.6875 "/></g></g></g><g fill="#ffffff" fill-opacity="1"><g transform="translate(211.665032, 279.647357)"><g><path d="M 2.71875 -5.71875 C 3.289062 -5.71875 3.785156 -5.613281 4.203125 -5.40625 C 4.617188 -5.195312 4.9375 -4.878906 5.15625 -4.453125 C 5.382812 -4.023438 5.5 -3.492188 5.5 -2.859375 C 5.5 -2.210938 5.382812 -1.675781 5.15625 -1.25 C 4.9375 -0.832031 4.617188 -0.519531 4.203125 -0.3125 C 3.785156 -0.101562 3.289062 0 2.71875 0 L 0.859375 0 L 0.859375 -5.71875 Z M 2.640625 -0.578125 C 3.117188 -0.578125 3.515625 -0.648438 3.828125 -0.796875 C 4.140625 -0.941406 4.375 -1.179688 4.53125 -1.515625 C 4.695312 -1.859375 4.78125 -2.304688 4.78125 -2.859375 C 4.78125 -3.410156 4.695312 -3.851562 4.53125 -4.1875 C 4.375 -4.53125 4.140625 -4.773438 3.828125 -4.921875 C 3.515625 -5.066406 3.117188 -5.140625 2.640625 -5.140625 L 1.53125 -5.140625 L 1.53125 -0.578125 Z M 2.640625 -0.578125 "/></g></g></g></svg>